<svg xmlns="http://www.w3.org/2000/svg" viewBox="0 0 100 100">
  <rect width="100" height="100" rx="16" fill="#0d1117"/>
  <rect x="10" y="18" width="80" height="55" rx="6" fill="#1c2128" stroke="#30363d" stroke-width="1.5"/>
  <rect x="10" y="18" width="80" height="12" rx="6" fill="#161b22"/>
  <rect x="10" y="24" width="80" height="6" fill="#161b22"/>
  <circle cx="20" cy="24" r="3" fill="#f85149"/>
  <circle cx="30" cy="24" r="3" fill="#e3b341"/>
  <circle cx="40" cy="24" r="3" fill="#3fb950"/>
  <text x="16" y="43" font-family="monospace" font-size="7" fill="#00b4d8">CPU</text>
  <rect x="30" y="37" width="52" height="5" rx="2.5" fill="#30363d"/>
  <rect x="30" y="37" width="35" height="5" rx="2.5" fill="#00b4d8"/>
  <text x="16" y="55" font-family="monospace" font-size="7" fill="#3fb950">RAM</text>
  <rect x="30" y="49" width="52" height="5" rx="2.5" fill="#30363d"/>
  <rect x="30" y="49" width="42" height="5" rx="2.5" fill="#3fb950"/>
  <text x="16" y="67" font-family="monospace" font-size="7" fill="#e3b341">DSK</text>
  <rect x="30" y="61" width="52" height="5" rx="2.5" fill="#30363d"/>
  <rect x="30" y="61" width="25" height="5" rx="2.5" fill="#e3b341"/>
  <text x="16" y="88" font-family="monospace" font-size="8" fill="#00b4d8">$_</text>
  <rect x="30" y="78" width="52" height="10" rx="3" fill="#161b22" stroke="#30363d" stroke-width="1"/>
  <text x="33" y="86" font-family="monospace" font-size="7" fill="#3fb950">linux@iobroker</text>
</svg>
